<svg xmlns="http://www.w3.org/2000/svg" width="105.368" height="105.368" viewBox="0 0 105.368 105.368">
  <g id="Group_3515" data-name="Group 3515" transform="translate(2127 2308)">
    <g id="Group_3393" data-name="Group 3393" transform="translate(-2736 -9130)">
      <rect id="Rectangle_1475" data-name="Rectangle 1475" width="105.368" height="105.368" rx="5" transform="translate(609 6822)" fill="#419d78"/>
      <path id="Union_527" data-name="Union 527" d="M-6138,44h-9.088a2.238,2.238,0,0,1-2.272-2.2,2.238,2.238,0,0,1,2.272-2.2h6.816V35.2h-15.908A6.72,6.72,0,0,1-6163,28.6V6.6a6.719,6.719,0,0,1,6.818-6.6h36.363A6.716,6.716,0,0,1-6113,6.6v22a6.717,6.717,0,0,1-6.818,6.6h-15.91v4.4h6.819a2.236,2.236,0,0,1,2.272,2.2,2.237,2.237,0,0,1-2.272,2.2Zm-20.452-37.4v22a2.239,2.239,0,0,0,2.272,2.2h36.363a2.241,2.241,0,0,0,2.273-2.2V6.6a2.239,2.239,0,0,0-2.273-2.2h-36.363A2.238,2.238,0,0,0-6158.454,6.6Z" transform="translate(6800 6853)" fill="#fff"/>
      <path id="Path_13792" data-name="Path 13792" d="M2.621-14.752l5.44,1.918v2.672L-.156-13.645V-15.9l8.217-3.483v2.672Zm9.486,7.091H10.056L15.171-22.75h2.052Zm12.97-7.12-5.545-1.937v-2.653l8.313,3.483v2.243l-8.313,3.493v-2.663Z" transform="translate(648.461 6885.633)" fill="#fff" stroke="#fff" stroke-miterlimit="10" stroke-width="1"/>
    </g>
  </g>
</svg>
